<svg xmlns="http://www.w3.org/2000/svg" width="160" height="160" viewBox="0 0 160 160" fill="none"><g stroke="#654c40" stroke-width="4" stroke-linecap="round" stroke-linejoin="round"><ellipse cx="80" cy="137" rx="43" ry="10" fill="#e5cba4" stroke="none"/><path d="M52 96 40 118m67-20 18-21" stroke="#c5966f" stroke-width="17"/><ellipse cx="80" cy="110" rx="32" ry="30" fill="#79bdcc"/><path d="M60 134v10m40-10v10" stroke="#c5966f" stroke-width="18"/><circle cx="47" cy="34" r="18" fill="#c5966f"/><circle cx="113" cy="34" r="18" fill="#c5966f"/><circle cx="47" cy="34" r="8" fill="#ebbd9d" stroke="none"/><circle cx="113" cy="34" r="8" fill="#ebbd9d" stroke="none"/><ellipse cx="80" cy="60" rx="45" ry="38" fill="#dfb58a"/><ellipse cx="80" cy="74" rx="22" ry="15" fill="#fff0cf" stroke="none"/><circle cx="63" cy="58" r="4" fill="#654c40" stroke="none"/><circle cx="97" cy="58" r="4" fill="#654c40" stroke="none"/><path d="m74 69 6 5 6-5Z" fill="#654c40" stroke-width="2"/><path d="M70 79q10 10 20 0" fill="none" stroke-width="3"/><circle cx="50" cy="72" r="7" fill="#eea599" stroke="none"/><circle cx="110" cy="72" r="7" fill="#eea599" stroke="none"/><path d="m80 104 4 7 8 1-6 6 1 8-7-4-7 4 1-8-6-6 8-1Z" fill="#f6cd65" stroke-width="2"/></g></svg>
