<svg xmlns="http://www.w3.org/2000/svg" width="320" height="320" viewBox="0 0 320 320" fill="none"><g stroke="#654c40" stroke-width="5" stroke-linecap="round" stroke-linejoin="round"><ellipse cx="160" cy="287" rx="94" ry="13" fill="#6f8d62" opacity=".13" stroke="none"/><path d="M214 246c51 15 76-29 53-45-15-11-29 5-20 17" stroke="#b97542" stroke-width="24"/><path d="M214 246c51 15 76-29 53-45-15-11-29 5-20 17" stroke="#e6a85e" stroke-width="14"/><path d="M100 205c-10 32-12 58 1 74h118c13-16 11-42 1-74" fill="#eeb96f"/><ellipse cx="160" cy="242" rx="34" ry="40" fill="#fff0cd" stroke="none"/><path d="m89 112-8-62q31 6 51 30m55 0q23-25 52-30l-9 64" fill="#eeb96f"/><path d="m94 91-3-24 24 20m91 0 24-20-4 25" fill="#e5a099" stroke="none"/><path d="M80 139c0-44 31-64 80-64s80 20 80 64c0 43-30 70-80 70s-80-27-80-70Z" fill="#eeb96f"/><path d="m143 81 5 18m24-18-5 18M85 129l19 4m-21 18 19-1m133-21-19 4m21 18-19-1" stroke="#bd8047" stroke-width="7"/><ellipse cx="128" cy="149" rx="6" ry="8" fill="#654c40" stroke="none"/><ellipse cx="192" cy="149" rx="6" ry="8" fill="#654c40" stroke="none"/><circle cx="126" cy="146" r="2" fill="#fff9ed" stroke="none"/><circle cx="190" cy="146" r="2" fill="#fff9ed" stroke="none"/><ellipse cx="104" cy="169" rx="13" ry="8" fill="#eaa699" stroke="none" opacity=".65"/><ellipse cx="216" cy="169" rx="13" ry="8" fill="#eaa699" stroke="none" opacity=".65"/><path d="M151 169q9-8 18 0l-9 8Z" fill="#9b655a" stroke="none"/><path d="M160 178q-10 16-20 3m20-3q10 16 20 3" stroke-width="3"/><path d="m97 170-34-5m33 18-31 5m159-18 33-5m-32 18 31 5" stroke-width="3"/><path d="M126 247v29m68-29v29"/><path d="M105 280h26m57 0h27" stroke="#c18b55" stroke-width="4"/></g></svg>
